<?xml version="1.0" encoding="UTF-8" standalone="no"?>
<!-- Created with Inkscape (http://www.inkscape.org/) -->

<svg
   xmlns:dc="http://purl.org/dc/elements/1.1/"
   xmlns:cc="http://creativecommons.org/ns#"
   xmlns:rdf="http://www.w3.org/1999/02/22-rdf-syntax-ns#"
   xmlns:svg="http://www.w3.org/2000/svg"
   xmlns="http://www.w3.org/2000/svg"
   xmlns:sodipodi="http://sodipodi.sourceforge.net/DTD/sodipodi-0.dtd"
   xmlns:inkscape="http://www.inkscape.org/namespaces/inkscape"
   width="121.80413"
   height="140.32408"
   id="svg3075"
   version="1.1"
   inkscape:version="0.48.2 r9819"
   sodipodi:docname="jazzhandslogo.png">
  <defs
     id="defs3077" />
  <sodipodi:namedview
     id="base"
     pagecolor="#ffffff"
     bordercolor="#666666"
     borderopacity="1.0"
     inkscape:pageopacity="0.0"
     inkscape:pageshadow="2"
     inkscape:zoom="1.1703125"
     inkscape:cx="337.45981"
     inkscape:cy="116.08581"
     inkscape:document-units="px"
     inkscape:current-layer="layer1"
     showgrid="false"
     showguides="false"
     inkscape:guide-bbox="true"
     fit-margin-top="0"
     fit-margin-left="0"
     fit-margin-right="0"
     fit-margin-bottom="0"
     inkscape:window-width="1063"
     inkscape:window-height="597"
     inkscape:window-x="26"
     inkscape:window-y="26"
     inkscape:window-maximized="0">
    <sodipodi:guide
       orientation="0,1"
       position="359.77376,-3.8096455"
       id="guide3139" />
    <sodipodi:guide
       orientation="0,1"
       position="371.55573,7.6702245"
       id="guide3141" />
    <sodipodi:guide
       orientation="1,0"
       position="362.49268,-36.738726"
       id="guide3143" />
    <sodipodi:guide
       orientation="1,0"
       position="375.78515,-41.270256"
       id="guide3145" />
  </sodipodi:namedview>
  <metadata
     id="metadata3080">
    <rdf:RDF>
      <cc:Work
         rdf:about="">
        <dc:format>image/svg+xml</dc:format>
        <dc:type
           rdf:resource="http://purl.org/dc/dcmitype/StillImage" />
        <dc:title></dc:title>
      </cc:Work>
    </rdf:RDF>
  </metadata>
  <g
     inkscape:label="Layer 1"
     inkscape:groupmode="layer"
     id="layer1"
     transform="translate(-2.144069,-1.0170515)">
    <g
       transform="translate(-122.97418,-104.51372)"
       style="font-size:40px;font-style:normal;font-variant:normal;font-weight:normal;font-stretch:normal;line-height:125.99999905%;letter-spacing:0px;word-spacing:0px;fill:#d4aa00;fill-opacity:1;stroke:none;font-family:Palatino Linotype;-inkscape-font-specification:Palatino Linotype"
       id="flowRoot3083">
      <path
         d="m 163.78516,233.32605 9.07031,0 c 4.12791,1e-5 6.18493,-2.49608 6.19189,-7.48828 l 0.099,-71.01972 c -14.40522,0 -30.25709,-3.49411 -33.21485,-11.47987 l 6.22885,-6.94834 c 8.39861,7.62287 15.16553,6.94834 26.986,6.94834 l 13.29247,0 c 8.65313,0 21.44067,-0.51031 28.18694,-5.53917 l 9.10325,5.53917 c -14.59001,13.59458 -27.55498,10.32792 -37.29019,11.47987 l 0.43378,73.61249 c 0.0685,11.61602 -5.32766,17.42432 -15.98291,17.42432 l -13.10449,0 z"
         style="font-size:144px;fill:#d4aa00;font-family:BigNoodleTitling;-inkscape-font-specification:BigNoodleTitling"
         id="path3137"
         inkscape:connector-curvature="0"
         sodipodi:nodetypes="cssccccccccsscc" />
    </g>
    <path
       style="fill:#d4aa00;fill-opacity:1;fill-rule:nonzero;stroke:none"
       d="m 33.99147,23.171078 c -0.14431,6.62306 -2.68591,14.12062 -11.79948,15.65338 -3.8076,0.41223 -7.71989,-3.83053 -12.02962,-8.59023 -0.3223197,-3.8296 5.97432,-9.63986 12.45939,-10.60683 2.23236,-0.75208 5.23793,-1.67625 6.39834,-1.19363 0.64728,0.38152 3.62378,-6.25969 3.92189,-6.76189 2.81824,-4.74773 4.61337,0.24733 3.25686,3.17354 -1.29042,2.78363 -2.8236,7.38458 -2.20738,8.32566 z"
       id="path3007"
       inkscape:connector-curvature="0"
       sodipodi:nodetypes="cccccssc" />
    <path
       style="fill:#d4aa00;fill-opacity:1;fill-rule:nonzero;stroke:none"
       d="M 10.30632,6.682578 C 9.7812303,2.142074 12.71489,0.497194 15.24858,4.963524 l 7.19851,14.719334 c -1.42002,0.274 -2.79533,0.71815 -5.0497,1.82649 z"
       id="rect3010"
       inkscape:connector-curvature="0"
       sodipodi:nodetypes="ccccc" />
    <path
       style="fill:#d4aa00;fill-opacity:1;fill-rule:nonzero;stroke:none"
       d="m 4.0518503,12.511728 c -1.5995,-3.35865 2.30112,-5.97048 4.5125,-2.79344 L 16.9447,22.073938 c -1.42002,0.27399 -3.01021,1.57767 -3.97529,3.00833 z"
       id="rect3010-1"
       inkscape:connector-curvature="0"
       sodipodi:nodetypes="ccccc" />
    <path
       style="fill:#d4aa00;fill-opacity:1;fill-rule:nonzero;stroke:none"
       d="m 3.4072103,23.040898 c -3.10366996,-1.10241 0.15232,-6.40026 2.90089,-3.00833 l 5.6943497,5.80178 c -0.77539,0.8112 -0.53908,2.22231 -1.61161,4.5125 z"
       id="rect3010-7"
       inkscape:connector-curvature="0"
       sodipodi:nodetypes="ccccc" />
    <path
       style="fill:#d4aa00;fill-opacity:1;fill-rule:nonzero;stroke:none"
       d="m 18.98608,4.238824 c -0.5251,-4.5405 4.66481,-4.14401 5.26457,0.32232 l 4.08275,13.859804 c -1.63491,0.0591 -3.65486,0.71815 -5.90923,1.28929 z"
       id="rect3010-4"
       inkscape:connector-curvature="0"
       sodipodi:nodetypes="ccccc" />
    <path
       style="fill:#d4aa00;fill-opacity:1;fill-rule:nonzero;stroke:none"
       d="m 92.1008,23.171088 c 0.14431,6.62306 2.68591,14.12061 11.79948,15.65337 3.8076,0.41223 7.71989,-3.83052 12.02962,-8.59023 0.32232,-3.82959 -5.97431,-9.63986 -12.45938,-10.60682 -2.23237,-0.75208 -5.23794,-1.67625 -6.39834,-1.19364 -0.64729,0.38153 -3.62379,-6.25969 -3.9219,-6.76189 -2.81824,-4.74773 -4.61337,0.24734 -3.25686,3.17354 1.29042,2.78363 2.8236,7.38458 2.20738,8.32567 z"
       id="path3007-0"
       inkscape:connector-curvature="0"
       sodipodi:nodetypes="cccccssc" />
    <path
       style="fill:#d4aa00;fill-opacity:1;fill-rule:nonzero;stroke:none"
       d="m 115.78595,6.682568 c 0.52509,-4.540494 -2.40856,-6.185364 -4.94226,-1.719034 l -7.19851,14.719334 c 1.42002,0.27399 2.79533,0.71814 5.0497,1.82648 z"
       id="rect3010-9"
       inkscape:connector-curvature="0"
       sodipodi:nodetypes="ccccc" />
    <path
       style="fill:#d4aa00;fill-opacity:1;fill-rule:nonzero;stroke:none"
       d="m 122.04042,12.511728 c 1.5995,-3.35864 -2.30112,-5.97049 -4.5125,-2.79344 l -8.38035,12.35565 c 1.42002,0.27399 3.01021,1.57767 3.97529,3.00833 z"
       id="rect3010-1-4"
       inkscape:connector-curvature="0"
       sodipodi:nodetypes="ccccc" />
    <path
       style="fill:#d4aa00;fill-opacity:1;fill-rule:nonzero;stroke:none"
       d="m 122.68506,23.040898 c 3.10367,-1.1024 -0.15232,-6.40025 -2.90089,-3.00833 l -5.69435,5.80178 c 0.77539,0.8112 0.10932,2.75952 1.18185,5.0497 z"
       id="rect3010-7-8"
       inkscape:connector-curvature="0"
       sodipodi:nodetypes="ccccc" />
    <path
       style="fill:#d4aa00;fill-opacity:1;fill-rule:nonzero;stroke:none"
       d="m 107.10619,4.238824 c 0.5251,-4.5405 -4.66481,-4.14401 -5.26457,0.32232 l -4.08274,13.859814 c 1.6349,0.0591 3.65485,0.71814 5.90922,1.28928 z"
       id="rect3010-4-8"
       inkscape:connector-curvature="0"
       sodipodi:nodetypes="ccccc" />
  </g>
</svg>
