<?xml version="1.0" encoding="UTF-8" standalone="no"?>
<!-- Created with Inkscape (http://www.inkscape.org/) -->

<svg
   xmlns:dc="http://purl.org/dc/elements/1.1/"
   xmlns:cc="http://creativecommons.org/ns#"
   xmlns:rdf="http://www.w3.org/1999/02/22-rdf-syntax-ns#"
   xmlns:svg="http://www.w3.org/2000/svg"
   xmlns="http://www.w3.org/2000/svg"
   xmlns:sodipodi="http://sodipodi.sourceforge.net/DTD/sodipodi-0.dtd"
   xmlns:inkscape="http://www.inkscape.org/namespaces/inkscape"
   width="176.48453"
   height="85.032112"
   id="svg2"
   version="1.1"
   inkscape:version="0.48.2 r9819"
   sodipodi:docname="Jazzhands_LeftMiddle.svg">
  <defs
     id="defs4" />
  <sodipodi:namedview
     id="base"
     pagecolor="#ffffff"
     bordercolor="#666666"
     borderopacity="1.0"
     inkscape:pageopacity="0.0"
     inkscape:pageshadow="2"
     inkscape:zoom="2.0727068"
     inkscape:cx="136.17461"
     inkscape:cy="63.210407"
     inkscape:document-units="px"
     inkscape:current-layer="layer1"
     showgrid="false"
     inkscape:window-width="1366"
     inkscape:window-height="705"
     inkscape:window-x="-8"
     inkscape:window-y="-8"
     inkscape:window-maximized="1"
     fit-margin-top="0"
     fit-margin-left="0"
     fit-margin-right="0"
     fit-margin-bottom="0" />
  <metadata
     id="metadata7">
    <rdf:RDF>
      <cc:Work
         rdf:about="">
        <dc:format>image/svg+xml</dc:format>
        <dc:type
           rdf:resource="http://purl.org/dc/dcmitype/StillImage" />
        <dc:title></dc:title>
      </cc:Work>
    </rdf:RDF>
  </metadata>
  <g
     inkscape:label="Layer 1"
     inkscape:groupmode="layer"
     id="layer1"
     transform="translate(-238.82539,-481.59282)">
    <path
       style="fill:#d4aa00;fill-opacity:1;fill-rule:nonzero;stroke:none"
       d="m 310.3307,531.41693 c -0.32401,14.87041 -6.03054,31.70429 -26.49275,35.1457 -8.54902,0.92556 -17.33308,-8.60047 -27.00949,-19.28718 -0.72369,-8.5984 13.41382,-21.64388 27.97441,-23.81496 5.01222,-1.68861 11.76047,-3.7636 14.36586,-2.68 1.45331,0.85661 8.13629,-14.05456 8.80562,-15.18213 6.32766,-10.65984 10.35817,0.55533 7.31246,7.12539 -2.8973,6.24994 -6.33968,16.58021 -4.95611,18.69318 z"
       id="path3007"
       inkscape:connector-curvature="0"
       sodipodi:nodetypes="cccccssc" />
    <path
       style="fill:#d4aa00;fill-opacity:1;fill-rule:nonzero;stroke:none"
       d="m 257.15167,494.39612 c -1.17897,-10.19454 5.40782,-13.8877 11.09659,-3.85968 l 16.16245,33.04857 c -3.18831,0.61519 -6.27621,1.61242 -11.33783,4.10092 z"
       id="rect3010"
       inkscape:connector-curvature="0"
       sodipodi:nodetypes="ccccc" />
    <path
       style="fill:#d40000;fill-opacity:1;fill-rule:nonzero;stroke:none"
       d="m 243.10883,507.48404 c -3.59128,-7.541 5.16659,-13.40524 10.13167,-6.27198 l 18.81598,27.7415 c -3.18831,0.61519 -6.75867,3.54226 -8.92552,6.75445 z"
       id="rect3010-1"
       inkscape:connector-curvature="0"
       sodipodi:nodetypes="ccccc" />
    <path
       style="fill:#d4aa00;fill-opacity:1;fill-rule:nonzero;stroke:none"
       d="m 241.66146,531.12463 c -6.96851,-2.47517 0.34198,-14.37016 6.51321,-6.75445 l 12.78522,13.02644 c -1.74093,1.82134 -1.21037,4.98965 -3.61846,10.13168 z"
       id="rect3010-7"
       inkscape:connector-curvature="0"
       sodipodi:nodetypes="ccccc" />
    <path
       style="fill:#d4aa00;fill-opacity:1;fill-rule:nonzero;stroke:none"
       d="m 276.63987,488.90929 c -1.17897,-10.19454 10.47366,-9.30432 11.82028,0.7237 l 9.16677,31.11872 c -3.67077,0.13273 -8.20606,1.61242 -13.26768,2.89477 z"
       id="rect3010-4"
       inkscape:connector-curvature="0"
       sodipodi:nodetypes="ccccc" />
    <path
       style="fill:#d4aa00;fill-opacity:1;fill-rule:nonzero;stroke:none"
       d="m 343.80461,531.33413 c 0.32401,14.87041 6.03054,31.70429 26.49275,35.1457 8.54902,0.92556 17.33308,-8.60047 27.00949,-19.28718 0.72369,-8.5984 -13.41382,-21.64388 -27.97441,-23.81496 -5.01222,-1.68861 -11.76047,-3.7636 -14.36586,-2.68 -1.45331,0.85661 -8.13629,-14.05456 -8.80562,-15.18213 -6.32766,-10.65984 -10.35817,0.55533 -7.31246,7.12539 2.8973,6.24994 6.33968,16.58021 4.95611,18.69318 z"
       id="path3007-0"
       inkscape:connector-curvature="0"
       sodipodi:nodetypes="cccccssc" />
    <path
       style="fill:#d4aa00;fill-opacity:1;fill-rule:nonzero;stroke:none"
       d="m 396.98364,494.31332 c 1.17897,-10.19454 -5.40782,-13.8877 -11.09659,-3.85968 l -16.16245,33.04857 c 3.18831,0.61519 6.27621,1.61242 11.33783,4.10092 z"
       id="rect3010-9"
       inkscape:connector-curvature="0"
       sodipodi:nodetypes="ccccc" />
    <path
       style="fill:#d4aa00;fill-opacity:1;fill-rule:nonzero;stroke:none"
       d="m 411.02648,507.40124 c 3.59128,-7.541 -5.16659,-13.40524 -10.13167,-6.27198 l -18.81598,27.7415 c 3.18831,0.61519 6.75867,3.54226 8.92552,6.75445 z"
       id="rect3010-1-4"
       inkscape:connector-curvature="0"
       sodipodi:nodetypes="ccccc" />
    <path
       style="fill:#d4aa00;fill-opacity:1;fill-rule:nonzero;stroke:none"
       d="m 412.47385,531.04183 c 6.96851,-2.47517 -0.34198,-14.37016 -6.51321,-6.75445 l -12.78522,13.02644 c 1.74093,1.82134 0.24545,6.1958 2.65354,11.33783 z"
       id="rect3010-7-8"
       inkscape:connector-curvature="0"
       sodipodi:nodetypes="ccccc" />
    <path
       style="fill:#d4aa00;fill-opacity:1;fill-rule:nonzero;stroke:none"
       d="m 377.49544,488.82649 c 1.17897,-10.19454 -10.47366,-9.30432 -11.82028,0.7237 l -9.16677,31.11872 c 3.67077,0.13273 8.20606,1.61242 13.26768,2.89477 z"
       id="rect3010-4-8"
       inkscape:connector-curvature="0"
       sodipodi:nodetypes="ccccc" />
  </g>
</svg>
